# AST/ASF file generated using VICON BodyLanguage
# -----------------------------------------------
:version 1.10
:name VICON
:units
  mass 1.0
  length 0.45
  angle deg
:documentation
   .ast/.asf automatically generated from VICON data using
   VICON BodyBuilder and BodyLanguage model FoxedUp or BRILLIANT.MOD
:root
   order TX TY TZ RX RY RZ
   axis XYZ
   position 0 0 0  
   orientation 0 0 0 
:bonedata
  begin
     id 1 
     name lhipjoint
     direction 0.630082 -0.636569 0.44472 
     length 2.82754 
     axis 0 0 0  XYZ
  end
  begin
     id 2 
     name lfemur
     direction 0.34202 -0.939693 0  
     length 7.26371  
     axis 0 0 20  XYZ
    dof rx ry rz
    limits (-160.0 20.0)
           (-70.0 70.0)
           (-60.0 70.0)
  end
  begin
     id 3 
     name ltibia
     direction 0.34202 -0.939693 0   
     length 7.88616   
     axis 0 0 20   XYZ
    dof rx
    limits (-10.0 170.0)
  end
  begin
     id 4 
     name lfoot
     direction 0.0603448 -0.165796 0.984312   
     length 1.77861   
     axis -90 7.62852e-016 20   XYZ
    dof rx rz
    limits (-45.0 90.0)
           (-70.0 20.0)
  end
  begin
     id 5 
     name ltoes
     direction 1.53577e-011 -4.21876e-011 1   
     length 0.902235   
     axis -90 7.62852e-016 20   XYZ
    dof rx
    limits (-90.0 20.0)
  end
  begin
     id 6 
     name rhipjoint
     direction -0.656778 -0.61817 0.431866   
     length 2.9117  
     axis 0 0 0  XYZ 
  end
  begin
     id 7 
     name rfemur
     direction -0.34202 -0.939693 0   
     length 6.81603   
     axis 0 0 -20   XYZ
    dof rx ry rz
    limits (-160.0 20.0)
           (-70.0 70.0)
           (-70.0 60.0)
  end
  begin
     id 8 
     name rtibia
     direction -0.34202 -0.939693 0   
     length 8.05997   
     axis 0 0 -20   XYZ
    dof rx
    limits (-10.0 170.0)
 end
 begin
     id 9 
     name rfoot
     direction -0.0862404 -0.236944 0.967688   
     length 1.84899  
     axis -90 -7.62852e-016 -20   XYZ
    dof rx rz
    limits (-45.0 90.0)
           (-20.0 70.0)
  end
  begin
     id 10 
     name rtoes
     direction -1.53561e-011 -4.21798e-011 1   
     length 0.931579   
     axis -90 -7.62852e-016 -20   XYZ
    dof rx
    limits (-90.0 20.0)
  end
  begin
     id 11 
     name lowerback
     direction -0.0110203 0.991769 -0.127564   
     length 2.05686   
     axis 0 0 0   XYZ
    dof rx ry rz
    limits (-20.0 45.0)
           (-30.0 30.0)
           (-30.0 30.0)
  end
  begin
     id 12 
     name upperback
     direction 0.0109719 0.99993 -0.00432479   
     length 2.06234   
     axis 0 0 0   XYZ
    dof rx ry rz
    limits (-20.0 45.0)
           (-30.0 30.0)
           (-30.0 30.0)
  end
  begin
     id 13 
     name thorax
     direction 0.0173308 0.998351 0.0547306   
     length 2.09856   
     axis 0 0 0   XYZ
    dof rx ry rz
    limits (-20.0 45.0)
           (-30.0 30.0)
           (-30.0 30.0)
  end
  begin
     id 14 
     name lowerneck
     direction -0.0311736 0.989033 0.144366   
     length 1.98151   
     axis 0 0 0   XYZ
    dof rx ry rz
    limits (-20.0 45.0)
           (-30.0 30.0)
           (-30.0 30.0)
  end
  begin
     id 15 
     name upperneck
     direction 0.0421057 0.975772 -0.214698   
     length 2.01457   
     axis 0 0 0   XYZ
    dof rx ry rz
    limits (-20.0 45.0)
           (-30.0 30.0)
           (-30.0 30.0)
  end
  begin
     id 16
     name head
     direction 0.0136911 0.995958 -0.0887718  
     length 2.03562  
     axis 0 0 0   XYZ
    dof rx ry rz
    limits (-20.0 45.0)
           (-30.0 30.0)
           (-30.0 30.0)
  end
  begin
     id 17 
     name lclavicle
     direction 0.915335 0.396201 0.0720134  
     length 4.16217  
     axis 0 0 0   XYZ
    dof ry rz
    limits (-20.0 10.0)
           (0.0 20.0)
  end
  begin
     id 18 
     name lhumerus
     direction 1 -4.48965e-011 6.383e-018   
     length 4.93042   
     axis -180 -30 -90   XYZ
    dof rx ry rz
    limits (-60.0 90.0)
           (-90.0 90.0)
           (-90.0 90.0)
  end
  begin
     id 19
     name lradius
     direction 1 -4.48972e-011 8.8689e-027   
     length 3.68177   
     axis -180 -30 -90   XYZ
    dof rx
    limits (-10.0 170.0)
  end
  begin
     id 20
     name lwrist
     direction 1 -4.48953e-011 1.17971e-026   
     length 1.84089   
     axis -7.69454e-015 90 90   XYZ
    dof ry
    limits (-180.0 0.0)
 end
  begin
     id 21 
     name lhand
     direction 1 -4.49027e-011 2.35802e-026   
     length 0.721479   
     axis -1.50533e-014 90 90   XYZ
    dof rx rz
    limits (-90.0 90.0)
           (-45.0 45.0)
  end
  begin
     id 22 
     name lfingers
     direction 1 -4.48915e-011 4.72027e-026   
     length 0.581675   
     axis -3.01059e-014 90 90   XYZ
    dof rx
    limits (0.0 90.0)
  end
  begin
     id 23
     name lthumb
     direction 0.707107 -6.34948e-011 0.707107   
     length 0.835172   
     axis -90 45 -5.12164e-014   XYZ
    dof rx rz
    limits (-45.0 45.0)
           (-45.0 45.0)
  end
  begin
     id 24 
     name rclavicle
     direction -0.882781 0.469197 0.0234974   
     length 3.95647  
     axis 0 0 0   XYZ 
    dof ry rz
    limits (-10.0 20.0)
           (-20.0 0.0)
  end
  begin
     id 25 
     name rhumerus
     direction -1 -4.48965e-011 -1.54906e-018  
     length 5.07905   
     axis -180 30 90   XYZ
    dof rx ry rz
    limits (-90.0 60.0)
           (-90.0 90.0)
           (-90.0 90.0)
  end
  begin
     id 26 
     name rradius
     direction -1 -4.48972e-011 5.47489e-027   
     length 3.54394   
     axis -180 30 90   XYZ
    dof rx
    limits (-10.0 170.0)
  end
  begin
     id 27 
     name rwrist
     direction -1 -4.48955e-011 1.17969e-026   
     length 1.77197   
     axis -7.69454e-015 -90 -90   XYZ
    dof ry
    limits (-180.0 0.0)
  end
  begin
     id 28
     name rhand
     direction -1 -4.48982e-011 2.35888e-026   
     length 0.681156   
     axis -1.50533e-014 -90 -90   XYZ
    dof rx rz
    limits (-90.0 90.0)
           (-45.0 45.0)
  end
  begin
     id 29
     name rfingers
     direction -1 -4.48955e-011 4.71877e-026   
     length 0.549165   
     axis -3.01059e-014 -90 -90   XYZ
    dof rx
    limits (0.0 90.0)
  end
  begin
     id 30
     name rthumb
     direction -0.707107 -6.3491e-011 0.707107   
     length 0.788495   
     axis -90 -45 5.12164e-014   XYZ
    dof rx rz
    limits (-45.0 45.0)
           (-45.0 45.0)
  end
:hierarchy
  begin
    root lhipjoint rhipjoint lowerback
    lhipjoint lfemur
    lfemur ltibia
    ltibia lfoot
    lfoot ltoes
    rhipjoint rfemur
    rfemur rtibia
    rtibia rfoot
    rfoot rtoes
    lowerback upperback
    upperback thorax
    thorax lowerneck lclavicle rclavicle
    lowerneck upperneck
    upperneck head
    lclavicle lhumerus
    lhumerus lradius
    lradius lwrist
    lwrist lhand lthumb
    lhand lfingers
    rclavicle rhumerus
    rhumerus rradius
    rradius rwrist
    rwrist rhand rthumb
    rhand rfingers
  end

#!OML:ASF H:\Bending\Project 1\Capture day 1\Session 1\Subject.ASF
:FULLY-SPECIFIED
:DEGREES
74
root -10.5456 17.9149 -16.2951 -121.693 87.998 -124.878
lowerback 5.89353 -0.0635002 1.00442
upperback -1.89976 0.0924185 1.64451
thorax -5.28146 0.0474641 1.13294
lowerneck -22.7492 -4.75579 -7.59791
upperneck 28.9429 -5.09138 4.44055
head 14.0137 -2.29132 2.15337
rclavicle -2.36057e-016 -1.11319e-014
rhumerus -36.7152 -5.04084 -77.6151
rradius 28.2146
rwrist 22.3816
rhand -14.2241 -12.1819
rfingers 7.12502
rthumb 11.913 -41.8229
lclavicle -2.36057e-016 -1.11319e-014
lhumerus -34.94 11.418 85.1708
lradius 25.9358
lwrist 14.8114
lhand -33.2523 5.89544
lfingers 7.12502
lthumb -6.45782 35.777
rfemur 4.41382 -3.5555 13.2929
rtibia -7.95139e-016
rfoot -7.10185 -12.7878
rtoes -5.17846
lfemur -9.31335 -14.6504 -8.89626
ltibia 22.1558
lfoot -20.0193 10.1954
ltoes -16.7385
75
root -10.5434 17.9144 -16.2935 -122.696 87.9633 -125.861
lowerback 5.8826 -0.0722714 1.0433
upperback -1.88419 0.083361 1.64543
thorax -5.25881 0.0417589 1.11284
lowerneck -22.7719 -4.76068 -7.63688
upperneck 28.9788 -5.08499 4.45153
head 14.0353 -2.29084 2.16602
rclavicle -2.47238e-015 3.97569e-015
rhumerus -36.699 -5.11527 -77.5987
rradius 28.1926
rwrist 22.4403
rhand -14.2845 -12.1881
rfingers 7.12502
rthumb 11.8548 -41.8326
lclavicle -2.47238e-015 3.97569e-015
lhumerus -34.8829 11.3978 85.2747
lradius 25.9605
lwrist 14.7712
lhand -33.3242 5.86643
lfingers 7.12502
lthumb -6.5272 35.7458
rfemur 4.4526 -3.60028 13.3074
rtibia -2.06736e-014
rfoot -7.11127 -12.8029
rtoes -5.14895
lfemur -9.31008 -14.6851 -8.88308
ltibia 22.1763
lfoot -20.0387 10.1517
ltoes -16.6223
76
root -10.541 17.914 -16.2909 -123.41 87.9383 -126.566
lowerback 5.86285 -0.0892521 1.05005
upperback -1.8745 0.0612172 1.65548
thorax -5.23719 0.0308255 1.12163
lowerneck -22.8138 -4.74582 -7.63845
upperneck 29.0412 -5.04858 4.41976
head 14.0675 -2.27897 2.16104
rclavicle 1.2424e-015 1.03368e-014
rhumerus -36.6928 -5.00165 -77.6678
rradius 28.2071
rwrist 22.3673
rhand -14.397 -12.2122
rfingers 7.12502
rthumb 11.7463 -41.8628
lclavicle 1.2424e-015 1.03368e-014
lhumerus -34.8434 11.4497 85.3431
lradius 25.9612
lwrist 14.67
lhand -33.3649 5.81582
lfingers 7.12502
lthumb -6.56645 35.694
rfemur 4.47498 -3.63327 13.3221
rtibia 7.95139e-016
rfoot -7.11701 -12.8257
rtoes -5.21297
lfemur -9.31436 -14.7602 -8.87184
ltibia 22.1946
lfoot -20.0699 10.1711
ltoes -16.6267
77
root -10.5388 17.9138 -16.2878 -123.62 87.926 -126.781
lowerback 5.84008 -0.109385 1.03327
upperback -1.87278 0.0336116 1.67418
thorax -5.22214 0.0181378 1.15321
lowerneck -22.8667 -4.71773 -7.61548
upperneck 29.1161 -4.99109 4.35692
head 14.1041 -2.2596 2.14342
rclavicle -2.55935e-015 1.43125e-014
rhumerus -36.6986 -4.73138 -77.7981
rradius 28.2544
rwrist 22.1909
rhand -14.555 -12.2468
rfingers 7.12502
rthumb 11.5939 -41.906
lclavicle -2.55935e-015 1.43125e-014
lhumerus -34.8263 11.5343 85.3903
lradius 25.9569
lwrist 14.5704
lhand -33.3835 5.75659
lfingers 7.12502
lthumb -6.58445 35.6342
rfemur 4.47543 -3.64633 13.3396
rtibia -2.22639e-014
rfoot -7.116 -12.8518
rtoes -5.39169
lfemur -9.32715 -14.8642 -8.86019
ltibia 22.2091
lfoot -20.1074 10.2586
ltoes -16.7972
78
root -10.537 17.9137 -16.2846 -123.241 87.925 -126.417
lowerback 5.82122 -0.126628 1.01204
upperback -1.87802 0.0100152 1.69689
thorax -5.21663 0.00767092 1.19108
lowerneck -22.9165 -4.68818 -7.59746
upperneck 29.1841 -4.93043 4.29611
head 14.1371 -2.23932 2.12798
rclavicle -5.90142e-015 -7.55382e-015
rhumerus -36.7115 -4.3991 -77.9422
rradius 28.3151
rwrist 21.9819
rhand -14.7303 -12.3017
rfingers 7.12502
rthumb 11.4249 -41.9704
lclavicle -5.90142e-015 -7.55382e-015
lhumerus -34.8283 11.6205 85.4269
lradius 25.9574
lwrist 14.5116
lhand -33.3922 5.7042
lfingers 7.12502
lthumb -6.59287 35.5816
rfemur 4.45577 -3.63708 13.3615
rtibia -7.15625e-015
rfoot -7.10895 -12.8752
rtoes -5.64684
lfemur -9.34419 -14.9742 -8.84546
ltibia 22.216
lfoot -20.1442 10.3917
ltoes -17.0913
79
root -10.5359 17.9136 -16.2818 -122.356 87.9284 -125.551
lowerback 5.81069 -0.136598 1.00694
upperback -1.88623 -0.00244264 1.71723
thorax -5.21909 0.00215883 1.21635
lowerneck -22.9479 -4.67013 -7.61683
upperneck 29.2273 -4.888 4.27884
head 14.1596 -2.22527 2.13282
rclavicle 5.59082e-016 3.97569e-015
rhumerus -36.7236 -4.11292 -78.0539
rradius 28.3667
rwrist 21.8122
rhand -14.8805 -12.3907
rfingers 7.12502
rthumb 11.28 -42.0674
lclavicle 5.59082e-016 3.97569e-015
lhumerus -34.8389 11.6995 85.4536
lradius 25.959
lwrist 14.4905
lhand -33.3931 5.66908
lfingers 7.12502
lthumb -6.5937 35.5464
rfemur 4.42456 -3.61068 13.3892
rtibia -7.95139e-016
rfoot -7.10159 -12.889
rtoes -5.88313
lfemur -9.35791 -15.0652 -8.82438
ltibia 22.21
lfoot -20.1714 10.5315
ltoes -17.4179
